<mxfile host="www.draw.io" modified="2019-12-23T17:02:51.176Z" agent="Mozilla/5.0 (X11; Linux x86_64) AppleWebKit/537.36 (KHTML, like Gecko) Chrome/79.0.3945.79 Safari/537.36" etag="q3rF-1wWty8Q8QBe2TFq" version="12.4.3" type="github" pages="1">
  <diagram name="Page-1" id="c4acf3e9-155e-7222-9cf6-157b1a14988f">
    <mxGraphModel dx="3619" dy="2190" grid="1" gridSize="10" guides="1" tooltips="1" connect="1" arrows="1" fold="1" page="1" pageScale="1" pageWidth="850" pageHeight="1100" background="#ffffff" math="0" shadow="0">
      <root>
        <mxCell id="0"/>
        <mxCell id="1" parent="0"/>
        <mxCell id="olElqUPnL_aV7rSpQFlY-1" value="Game" style="swimlane;fontStyle=1;align=center;verticalAlign=top;childLayout=stackLayout;horizontal=1;startSize=26;horizontalStack=0;resizeParent=1;resizeParentMax=0;resizeLast=0;collapsible=1;marginBottom=0;" parent="1" vertex="1">
          <mxGeometry x="-250" y="92" width="160" height="52" as="geometry"/>
        </mxCell>
        <mxCell id="olElqUPnL_aV7rSpQFlY-5" value="Controller" style="swimlane;fontStyle=1;align=center;verticalAlign=top;childLayout=stackLayout;horizontal=1;startSize=26;horizontalStack=0;resizeParent=1;resizeParentMax=0;resizeLast=0;collapsible=1;marginBottom=0;" parent="1" vertex="1">
          <mxGeometry x="50" y="-10" width="160" height="52" as="geometry"/>
        </mxCell>
        <mxCell id="olElqUPnL_aV7rSpQFlY-9" value="BombermanGame" style="swimlane;fontStyle=1;align=center;verticalAlign=top;childLayout=stackLayout;horizontal=1;startSize=26;horizontalStack=0;resizeParent=1;resizeParentMax=0;resizeLast=0;collapsible=1;marginBottom=0;" parent="1" vertex="1">
          <mxGeometry x="-250" y="250" width="160" height="52" as="geometry"/>
        </mxCell>
        <mxCell id="olElqUPnL_aV7rSpQFlY-19" value="Extends" style="endArrow=block;endSize=16;endFill=0;html=1;exitX=0.5;exitY=0;exitDx=0;exitDy=0;entryX=0.5;entryY=1;entryDx=0;entryDy=0;" parent="1" source="olElqUPnL_aV7rSpQFlY-9" target="olElqUPnL_aV7rSpQFlY-1" edge="1">
          <mxGeometry width="160" relative="1" as="geometry">
            <mxPoint x="-220" y="253.5" as="sourcePoint"/>
            <mxPoint x="-140" y="216" as="targetPoint"/>
          </mxGeometry>
        </mxCell>
        <mxCell id="olElqUPnL_aV7rSpQFlY-28" value="Extends" style="endArrow=block;endSize=16;endFill=0;html=1;exitX=0.5;exitY=0;exitDx=0;exitDy=0;entryX=0.5;entryY=1;entryDx=0;entryDy=0;" parent="1" source="olElqUPnL_aV7rSpQFlY-24" target="olElqUPnL_aV7rSpQFlY-5" edge="1">
          <mxGeometry width="160" relative="1" as="geometry">
            <mxPoint x="129" y="130" as="sourcePoint"/>
            <mxPoint x="129" y="50.003999999999905" as="targetPoint"/>
          </mxGeometry>
        </mxCell>
        <mxCell id="olElqUPnL_aV7rSpQFlY-34" value="AbstractAgent" style="swimlane;fontStyle=1;align=center;verticalAlign=top;childLayout=stackLayout;horizontal=1;startSize=26;horizontalStack=0;resizeParent=1;resizeParentMax=0;resizeLast=0;collapsible=1;marginBottom=0;" parent="1" vertex="1">
          <mxGeometry x="40" y="570" width="160" height="52" as="geometry"/>
        </mxCell>
        <mxCell id="olElqUPnL_aV7rSpQFlY-38" value="BirdAgent" style="swimlane;fontStyle=1;align=center;verticalAlign=top;childLayout=stackLayout;horizontal=1;startSize=26;horizontalStack=0;resizeParent=1;resizeParentMax=0;resizeLast=0;collapsible=1;marginBottom=0;" parent="1" vertex="1">
          <mxGeometry x="140" y="700" width="160" height="52" as="geometry"/>
        </mxCell>
        <mxCell id="olElqUPnL_aV7rSpQFlY-42" value="RajionAgent" style="swimlane;fontStyle=1;align=center;verticalAlign=top;childLayout=stackLayout;horizontal=1;startSize=26;horizontalStack=0;resizeParent=1;resizeParentMax=0;resizeLast=0;collapsible=1;marginBottom=0;" parent="1" vertex="1">
          <mxGeometry x="320" y="700" width="160" height="52" as="geometry"/>
        </mxCell>
        <mxCell id="olElqUPnL_aV7rSpQFlY-46" value="BasicEnemyAgent" style="swimlane;fontStyle=1;align=center;verticalAlign=top;childLayout=stackLayout;horizontal=1;startSize=26;horizontalStack=0;resizeParent=1;resizeParentMax=0;resizeLast=0;collapsible=1;marginBottom=0;" parent="1" vertex="1">
          <mxGeometry x="-40" y="700" width="160" height="52" as="geometry"/>
        </mxCell>
        <mxCell id="olElqUPnL_aV7rSpQFlY-50" value="BombermanAgent" style="swimlane;fontStyle=1;align=center;verticalAlign=top;childLayout=stackLayout;horizontal=1;startSize=26;horizontalStack=0;resizeParent=1;resizeParentMax=0;resizeLast=0;collapsible=1;marginBottom=0;" parent="1" vertex="1">
          <mxGeometry x="-220" y="700" width="160" height="52" as="geometry"/>
        </mxCell>
        <mxCell id="olElqUPnL_aV7rSpQFlY-58" value="Extends" style="endArrow=block;endSize=16;endFill=0;html=1;exitX=0.5;exitY=0;exitDx=0;exitDy=0;" parent="1" source="olElqUPnL_aV7rSpQFlY-50" edge="1">
          <mxGeometry width="160" relative="1" as="geometry">
            <mxPoint x="-160" y="690" as="sourcePoint"/>
            <mxPoint x="50" y="620" as="targetPoint"/>
          </mxGeometry>
        </mxCell>
        <mxCell id="olElqUPnL_aV7rSpQFlY-59" value="Extends" style="endArrow=block;endSize=16;endFill=0;html=1;exitX=0.5;exitY=0;exitDx=0;exitDy=0;" parent="1" source="olElqUPnL_aV7rSpQFlY-46" edge="1">
          <mxGeometry width="160" relative="1" as="geometry">
            <mxPoint x="10" y="700" as="sourcePoint"/>
            <mxPoint x="109" y="620" as="targetPoint"/>
          </mxGeometry>
        </mxCell>
        <mxCell id="olElqUPnL_aV7rSpQFlY-60" value="Extends" style="endArrow=block;endSize=16;endFill=0;html=1;exitX=0.5;exitY=0;exitDx=0;exitDy=0;" parent="1" source="olElqUPnL_aV7rSpQFlY-38" edge="1">
          <mxGeometry width="160" relative="1" as="geometry">
            <mxPoint x="140" y="710" as="sourcePoint"/>
            <mxPoint x="150" y="620" as="targetPoint"/>
          </mxGeometry>
        </mxCell>
        <mxCell id="olElqUPnL_aV7rSpQFlY-61" value="Extends" style="endArrow=block;endSize=16;endFill=0;html=1;exitX=0.438;exitY=-0.012;exitDx=0;exitDy=0;exitPerimeter=0;" parent="1" source="olElqUPnL_aV7rSpQFlY-42" edge="1">
          <mxGeometry width="160" relative="1" as="geometry">
            <mxPoint x="350" y="730" as="sourcePoint"/>
            <mxPoint x="190" y="620" as="targetPoint"/>
          </mxGeometry>
        </mxCell>
        <mxCell id="olElqUPnL_aV7rSpQFlY-66" value="BombermanView" style="swimlane;fontStyle=1;align=center;verticalAlign=top;childLayout=stackLayout;horizontal=1;startSize=26;horizontalStack=0;resizeParent=1;resizeParentMax=0;resizeLast=0;collapsible=1;marginBottom=0;" parent="1" vertex="1">
          <mxGeometry x="360" y="250" width="160" height="52" as="geometry"/>
        </mxCell>
        <mxCell id="olElqUPnL_aV7rSpQFlY-71" value="PanelBomberman" style="swimlane;fontStyle=1;align=center;verticalAlign=top;childLayout=stackLayout;horizontal=1;startSize=26;horizontalStack=0;resizeParent=1;resizeParentMax=0;resizeLast=0;collapsible=1;marginBottom=0;" parent="1" vertex="1">
          <mxGeometry x="260" y="368" width="160" height="52" as="geometry"/>
        </mxCell>
        <mxCell id="olElqUPnL_aV7rSpQFlY-75" value="CommandPanel" style="swimlane;fontStyle=1;align=center;verticalAlign=top;childLayout=stackLayout;horizontal=1;startSize=26;horizontalStack=0;resizeParent=1;resizeParentMax=0;resizeLast=0;collapsible=1;marginBottom=0;" parent="1" vertex="1">
          <mxGeometry x="460" y="368" width="160" height="52" as="geometry"/>
        </mxCell>
        <mxCell id="olElqUPnL_aV7rSpQFlY-79" value="Use" style="endArrow=open;endSize=12;dashed=1;html=1;entryX=0.5;entryY=0;entryDx=0;entryDy=0;exitX=0.525;exitY=1.115;exitDx=0;exitDy=0;exitPerimeter=0;" parent="1" target="olElqUPnL_aV7rSpQFlY-75" edge="1">
          <mxGeometry width="160" relative="1" as="geometry">
            <mxPoint x="444" y="304.99" as="sourcePoint"/>
            <mxPoint x="580" y="377.5" as="targetPoint"/>
          </mxGeometry>
        </mxCell>
        <mxCell id="olElqUPnL_aV7rSpQFlY-80" value="Use" style="endArrow=open;endSize=12;dashed=1;html=1;exitX=0.5;exitY=1.077;exitDx=0;exitDy=0;exitPerimeter=0;entryX=0.5;entryY=0;entryDx=0;entryDy=0;" parent="1" target="olElqUPnL_aV7rSpQFlY-71" edge="1">
          <mxGeometry width="160" relative="1" as="geometry">
            <mxPoint x="440" y="304.00199999999995" as="sourcePoint"/>
            <mxPoint x="500" y="380" as="targetPoint"/>
          </mxGeometry>
        </mxCell>
        <mxCell id="olElqUPnL_aV7rSpQFlY-82" value="Use" style="endArrow=open;endSize=12;dashed=1;html=1;exitX=0;exitY=0.5;exitDx=0;exitDy=0;entryX=1;entryY=0.5;entryDx=0;entryDy=0;" parent="1" source="olElqUPnL_aV7rSpQFlY-24" target="olElqUPnL_aV7rSpQFlY-9" edge="1">
          <mxGeometry width="160" relative="1" as="geometry">
            <mxPoint x="48.07999999999993" y="257.9960000000001" as="sourcePoint"/>
            <mxPoint x="-59.039999999999964" y="341.9939999999999" as="targetPoint"/>
          </mxGeometry>
        </mxCell>
        <mxCell id="olElqUPnL_aV7rSpQFlY-83" value="Use" style="endArrow=open;endSize=12;dashed=1;html=1;exitX=1;exitY=0.5;exitDx=0;exitDy=0;entryX=0;entryY=0.5;entryDx=0;entryDy=0;" parent="1" source="olElqUPnL_aV7rSpQFlY-24" target="olElqUPnL_aV7rSpQFlY-66" edge="1">
          <mxGeometry width="160" relative="1" as="geometry">
            <mxPoint x="213.03999999999996" y="255.99399999999991" as="sourcePoint"/>
            <mxPoint x="320" y="340" as="targetPoint"/>
          </mxGeometry>
        </mxCell>
        <mxCell id="olElqUPnL_aV7rSpQFlY-85" value="InfoAgent" style="swimlane;fontStyle=1;align=center;verticalAlign=top;childLayout=stackLayout;horizontal=1;startSize=26;horizontalStack=0;resizeParent=1;resizeParentMax=0;resizeLast=0;collapsible=1;marginBottom=0;" parent="1" vertex="1">
          <mxGeometry x="40" y="460" width="160" height="52" as="geometry"/>
        </mxCell>
        <mxCell id="olElqUPnL_aV7rSpQFlY-89" value="Extends" style="endArrow=block;endSize=16;endFill=0;html=1;exitX=0.5;exitY=0;exitDx=0;exitDy=0;entryX=0.5;entryY=1;entryDx=0;entryDy=0;" parent="1" source="olElqUPnL_aV7rSpQFlY-34" target="olElqUPnL_aV7rSpQFlY-85" edge="1">
          <mxGeometry width="160" relative="1" as="geometry">
            <mxPoint x="80" y="520" as="sourcePoint"/>
            <mxPoint x="120" y="500" as="targetPoint"/>
          </mxGeometry>
        </mxCell>
        <mxCell id="LfSwcu0L7vIEiYzTEpRB-1" value="Use" style="endArrow=open;endSize=12;dashed=1;html=1;entryX=0;entryY=0.5;entryDx=0;entryDy=0;exitX=1;exitY=1;exitDx=0;exitDy=0;" parent="1" source="wivATXwN7BjWKXYdl7Mk-1" target="olElqUPnL_aV7rSpQFlY-9" edge="1">
          <mxGeometry width="160" relative="1" as="geometry">
            <mxPoint x="-460" y="183" as="sourcePoint"/>
            <mxPoint x="-220" y="335" as="targetPoint"/>
          </mxGeometry>
        </mxCell>
        <mxCell id="sl3L9NajWKkjFewEsj5y-1" value="Abstract System" style="swimlane;fontStyle=1;align=center;verticalAlign=top;childLayout=stackLayout;horizontal=1;startSize=26;horizontalStack=0;resizeParent=1;resizeParentMax=0;resizeLast=0;collapsible=1;marginBottom=0;" parent="1" vertex="1">
          <mxGeometry x="-450" y="440" width="160" height="52" as="geometry"/>
        </mxCell>
        <mxCell id="sl3L9NajWKkjFewEsj5y-2" value="ActionSystem" style="swimlane;fontStyle=1;align=center;verticalAlign=top;childLayout=stackLayout;horizontal=1;startSize=26;horizontalStack=0;resizeParent=1;resizeParentMax=0;resizeLast=0;collapsible=1;marginBottom=0;" parent="1" vertex="1">
          <mxGeometry x="-450" y="548" width="160" height="52" as="geometry"/>
        </mxCell>
        <mxCell id="sl3L9NajWKkjFewEsj5y-3" value="DamageSystem" style="swimlane;fontStyle=1;align=center;verticalAlign=top;childLayout=stackLayout;horizontal=1;startSize=26;horizontalStack=0;resizeParent=1;resizeParentMax=0;resizeLast=0;collapsible=1;marginBottom=0;" parent="1" vertex="1">
          <mxGeometry x="-630" y="548" width="160" height="52" as="geometry"/>
        </mxCell>
        <mxCell id="sl3L9NajWKkjFewEsj5y-4" value="ItemSystem" style="swimlane;fontStyle=1;align=center;verticalAlign=top;childLayout=stackLayout;horizontal=1;startSize=26;horizontalStack=0;resizeParent=1;resizeParentMax=0;resizeLast=0;collapsible=1;marginBottom=0;" parent="1" vertex="1">
          <mxGeometry x="-270" y="548" width="160" height="52" as="geometry"/>
        </mxCell>
        <mxCell id="sl3L9NajWKkjFewEsj5y-6" value="Extends" style="endArrow=block;endSize=16;endFill=0;html=1;exitX=0.5;exitY=0;exitDx=0;exitDy=0;entryX=0.25;entryY=1;entryDx=0;entryDy=0;" parent="1" source="sl3L9NajWKkjFewEsj5y-3" target="sl3L9NajWKkjFewEsj5y-1" edge="1">
          <mxGeometry width="160" relative="1" as="geometry">
            <mxPoint x="-570" y="548" as="sourcePoint"/>
            <mxPoint x="-530" y="420" as="targetPoint"/>
          </mxGeometry>
        </mxCell>
        <mxCell id="sl3L9NajWKkjFewEsj5y-7" value="Extends" style="endArrow=block;endSize=16;endFill=0;html=1;exitX=0.5;exitY=0;exitDx=0;exitDy=0;entryX=0.5;entryY=1;entryDx=0;entryDy=0;" parent="1" source="sl3L9NajWKkjFewEsj5y-2" target="sl3L9NajWKkjFewEsj5y-1" edge="1">
          <mxGeometry width="160" relative="1" as="geometry">
            <mxPoint x="-380.5" y="610" as="sourcePoint"/>
            <mxPoint x="-380.5" y="492" as="targetPoint"/>
          </mxGeometry>
        </mxCell>
        <mxCell id="sl3L9NajWKkjFewEsj5y-8" value="Extends" style="endArrow=block;endSize=16;endFill=0;html=1;exitX=0.5;exitY=0;exitDx=0;exitDy=0;entryX=0.75;entryY=1;entryDx=0;entryDy=0;" parent="1" source="sl3L9NajWKkjFewEsj5y-4" target="sl3L9NajWKkjFewEsj5y-1" edge="1">
          <mxGeometry width="160" relative="1" as="geometry">
            <mxPoint x="-220" y="548" as="sourcePoint"/>
            <mxPoint x="-220" y="430" as="targetPoint"/>
          </mxGeometry>
        </mxCell>
        <mxCell id="sl3L9NajWKkjFewEsj5y-10" value="Use" style="endArrow=open;endSize=12;dashed=1;html=1;entryX=0.5;entryY=1;entryDx=0;entryDy=0;exitX=0.5;exitY=0;exitDx=0;exitDy=0;" parent="1" source="sl3L9NajWKkjFewEsj5y-1" target="olElqUPnL_aV7rSpQFlY-9" edge="1">
          <mxGeometry width="160" relative="1" as="geometry">
            <mxPoint x="-320" y="380" as="sourcePoint"/>
            <mxPoint x="-160" y="419" as="targetPoint"/>
          </mxGeometry>
        </mxCell>
        <mxCell id="sl3L9NajWKkjFewEsj5y-12" value="AgentFactory" style="swimlane;fontStyle=1;align=center;verticalAlign=top;childLayout=stackLayout;horizontal=1;startSize=26;horizontalStack=0;resizeParent=1;resizeParentMax=0;resizeLast=0;collapsible=1;marginBottom=0;" parent="1" vertex="1">
          <mxGeometry x="410" y="570" width="160" height="52" as="geometry"/>
        </mxCell>
        <mxCell id="sl3L9NajWKkjFewEsj5y-13" value="Use" style="endArrow=open;endSize=12;dashed=1;html=1;exitX=0;exitY=0.5;exitDx=0;exitDy=0;entryX=1;entryY=0.5;entryDx=0;entryDy=0;" parent="1" source="sl3L9NajWKkjFewEsj5y-12" target="olElqUPnL_aV7rSpQFlY-34" edge="1">
          <mxGeometry width="160" relative="1" as="geometry">
            <mxPoint x="260" y="472" as="sourcePoint"/>
            <mxPoint x="380" y="402" as="targetPoint"/>
          </mxGeometry>
        </mxCell>
        <mxCell id="olElqUPnL_aV7rSpQFlY-24" value="BombermanController" style="swimlane;fontStyle=1;align=center;verticalAlign=top;childLayout=stackLayout;horizontal=1;startSize=26;horizontalStack=0;resizeParent=1;resizeParentMax=0;resizeLast=0;collapsible=1;marginBottom=0;" parent="1" vertex="1">
          <mxGeometry x="50" y="92" width="160" height="52" as="geometry"/>
        </mxCell>
        <mxCell id="sl3L9NajWKkjFewEsj5y-15" value="Use" style="endArrow=open;endSize=12;dashed=1;html=1;entryX=0.5;entryY=0;entryDx=0;entryDy=0;exitX=1;exitY=1;exitDx=0;exitDy=0;" parent="1" source="olElqUPnL_aV7rSpQFlY-9" target="sl3L9NajWKkjFewEsj5y-12" edge="1">
          <mxGeometry width="160" relative="1" as="geometry">
            <mxPoint x="-60" y="320" as="sourcePoint"/>
            <mxPoint x="150" y="413" as="targetPoint"/>
          </mxGeometry>
        </mxCell>
        <mxCell id="wivATXwN7BjWKXYdl7Mk-1" value="&lt;font style=&quot;vertical-align: inherit&quot;&gt;&lt;font style=&quot;vertical-align: inherit ; font-size: 12px&quot;&gt;&lt;b&gt;StrategieAgent&lt;/b&gt;&lt;/font&gt;&lt;/font&gt;" style="swimlane;html=1;fontStyle=0;childLayout=stackLayout;horizontal=1;startSize=26;fillColor=none;horizontalStack=0;resizeParent=1;resizeLast=0;collapsible=1;marginBottom=0;swimlaneFillColor=#ffffff;rounded=0;shadow=0;comic=0;labelBackgroundColor=none;strokeWidth=1;fontFamily=Verdana;fontSize=10;align=center;" vertex="1" parent="1">
          <mxGeometry x="-1125" y="-3.9999999999999716" width="395" height="186" as="geometry"/>
        </mxCell>
        <mxCell id="wivATXwN7BjWKXYdl7Mk-2" value="&lt;p style=&quot;margin: 0px ; margin-top: 4px ; text-align: center&quot;&gt;&lt;span&gt;&amp;nbsp;protected BombermanGame bombermanGame;&lt;/span&gt;&lt;/p&gt;&lt;p style=&quot;margin: 0px ; margin-top: 4px ; text-align: center&quot;&gt;&lt;span style=&quot;text-align: left&quot;&gt;protected ArrayList&amp;lt;ArrayList&amp;lt;Boolean&amp;gt;&amp;gt; mapChemin;&lt;/span&gt;&lt;/p&gt;&lt;p style=&quot;margin: 0px ; margin-top: 4px ; text-align: center&quot;&gt;&lt;span style=&quot;text-align: left&quot;&gt;protected int viewNbBlocks;&lt;/span&gt;&lt;/p&gt;&lt;p style=&quot;margin: 0px ; margin-top: 4px ; text-align: center&quot;&gt;&lt;span style=&quot;text-align: left&quot;&gt;protected AbstractAgent agentCalling;&lt;/span&gt;&lt;/p&gt;&lt;hr size=&quot;1&quot;&gt;&lt;p style=&quot;margin: 0px ; margin-left: 4px&quot;&gt;+ public AgentAction doMouvement(Coordonnee objectif)&lt;br&gt;+&amp;nbsp;public abstract AgentAction doStrategie();&lt;/p&gt;" style="verticalAlign=top;align=left;overflow=fill;fontSize=12;fontFamily=Helvetica;html=1;rounded=0;shadow=0;comic=0;labelBackgroundColor=none;strokeWidth=1" vertex="1" parent="wivATXwN7BjWKXYdl7Mk-1">
          <mxGeometry y="26" width="395" height="140" as="geometry"/>
        </mxCell>
        <mxCell id="wivATXwN7BjWKXYdl7Mk-3" value="StrategieBasic" style="swimlane;html=1;fontStyle=0;childLayout=stackLayout;horizontal=1;startSize=26;fillColor=none;horizontalStack=0;resizeParent=1;resizeLast=0;collapsible=1;marginBottom=0;swimlaneFillColor=#ffffff;rounded=0;shadow=0;comic=0;labelBackgroundColor=none;strokeWidth=1;fontFamily=Verdana;fontSize=10;align=center;" vertex="1" parent="1">
          <mxGeometry x="-1330" y="446" width="200" height="83" as="geometry"/>
        </mxCell>
        <mxCell id="wivATXwN7BjWKXYdl7Mk-4" value="&lt;b style=&quot;font-size: 9px&quot;&gt;+&amp;nbsp;public abstract AgentAction doStrategie();&lt;/b&gt;" style="text;html=1;" vertex="1" parent="wivATXwN7BjWKXYdl7Mk-3">
          <mxGeometry y="26" width="200" height="54" as="geometry"/>
        </mxCell>
        <mxCell id="wivATXwN7BjWKXYdl7Mk-5" value="StrategieSafe" style="swimlane;html=1;fontStyle=0;childLayout=stackLayout;horizontal=1;startSize=26;fillColor=none;horizontalStack=0;resizeParent=1;resizeLast=0;collapsible=1;marginBottom=0;swimlaneFillColor=#ffffff;rounded=0;shadow=0;comic=0;labelBackgroundColor=none;strokeWidth=1;fontFamily=Verdana;fontSize=10;align=center;" vertex="1" parent="1">
          <mxGeometry x="-1130" y="346" width="200" height="83" as="geometry"/>
        </mxCell>
        <mxCell id="wivATXwN7BjWKXYdl7Mk-6" value="&lt;b style=&quot;font-size: 9px&quot;&gt;+&amp;nbsp;public abstract AgentAction doStrategie();&lt;/b&gt;" style="text;html=1;" vertex="1" parent="wivATXwN7BjWKXYdl7Mk-5">
          <mxGeometry y="26" width="200" height="54" as="geometry"/>
        </mxCell>
        <mxCell id="wivATXwN7BjWKXYdl7Mk-7" value="StrategieAttaque" style="swimlane;html=1;fontStyle=0;childLayout=stackLayout;horizontal=1;startSize=26;fillColor=none;horizontalStack=0;resizeParent=1;resizeLast=0;collapsible=1;marginBottom=0;swimlaneFillColor=#ffffff;rounded=0;shadow=0;comic=0;labelBackgroundColor=none;strokeWidth=1;fontFamily=Verdana;fontSize=10;align=center;" vertex="1" parent="1">
          <mxGeometry x="-930" y="492" width="190" height="83" as="geometry"/>
        </mxCell>
        <mxCell id="wivATXwN7BjWKXYdl7Mk-8" value="&lt;b style=&quot;font-size: 9px&quot;&gt;+&amp;nbsp;public abstract AgentAction doStrategie();&lt;/b&gt;" style="text;html=1;" vertex="1" parent="wivATXwN7BjWKXYdl7Mk-7">
          <mxGeometry y="26" width="190" height="54" as="geometry"/>
        </mxCell>
        <mxCell id="wivATXwN7BjWKXYdl7Mk-11" value="Extends" style="endArrow=block;endSize=16;endFill=0;html=1;exitX=0.5;exitY=0;exitDx=0;exitDy=0;entryX=0;entryY=1;entryDx=0;entryDy=0;" edge="1" parent="1" target="wivATXwN7BjWKXYdl7Mk-2" source="wivATXwN7BjWKXYdl7Mk-28">
          <mxGeometry width="160" relative="1" as="geometry">
            <mxPoint x="-1395" y="286" as="sourcePoint"/>
            <mxPoint x="-1300" y="386" as="targetPoint"/>
          </mxGeometry>
        </mxCell>
        <mxCell id="wivATXwN7BjWKXYdl7Mk-13" value="Extends" style="endArrow=block;endSize=16;endFill=0;html=1;exitX=0.5;exitY=0;exitDx=0;exitDy=0;entryX=0;entryY=1;entryDx=0;entryDy=0;" edge="1" parent="1" source="wivATXwN7BjWKXYdl7Mk-3" target="wivATXwN7BjWKXYdl7Mk-1">
          <mxGeometry width="160" relative="1" as="geometry">
            <mxPoint x="-1370" y="296" as="sourcePoint"/>
            <mxPoint x="-1130" y="186.00000000000003" as="targetPoint"/>
          </mxGeometry>
        </mxCell>
        <mxCell id="wivATXwN7BjWKXYdl7Mk-14" value="Extends" style="endArrow=block;endSize=16;endFill=0;html=1;exitX=0.25;exitY=0;exitDx=0;exitDy=0;entryX=0.25;entryY=1;entryDx=0;entryDy=0;" edge="1" parent="1" source="wivATXwN7BjWKXYdl7Mk-5" target="wivATXwN7BjWKXYdl7Mk-1">
          <mxGeometry width="160" relative="1" as="geometry">
            <mxPoint x="-1200" y="296" as="sourcePoint"/>
            <mxPoint x="-1115" y="192.00000000000003" as="targetPoint"/>
          </mxGeometry>
        </mxCell>
        <mxCell id="wivATXwN7BjWKXYdl7Mk-15" value="Extends" style="endArrow=block;endSize=16;endFill=0;html=1;exitX=0.5;exitY=0;exitDx=0;exitDy=0;entryX=0.5;entryY=1;entryDx=0;entryDy=0;" edge="1" parent="1" source="wivATXwN7BjWKXYdl7Mk-7" target="wivATXwN7BjWKXYdl7Mk-1">
          <mxGeometry width="160" relative="1" as="geometry">
            <mxPoint x="-1070" y="296" as="sourcePoint"/>
            <mxPoint x="-1016.25" y="192.00000000000003" as="targetPoint"/>
          </mxGeometry>
        </mxCell>
        <mxCell id="wivATXwN7BjWKXYdl7Mk-16" value="AlgorithmeAEtoile" style="swimlane;fontStyle=1;align=center;verticalAlign=top;childLayout=stackLayout;horizontal=1;startSize=26;horizontalStack=0;resizeParent=1;resizeParentMax=0;resizeLast=0;collapsible=1;marginBottom=0;" vertex="1" parent="1">
          <mxGeometry x="-670" y="-89.99999999999997" width="160" height="198" as="geometry"/>
        </mxCell>
        <mxCell id="wivATXwN7BjWKXYdl7Mk-17" value="+ AbstractAgent&#xa;+openList&#xa;+CloseLis" style="text;strokeColor=none;fillColor=none;align=left;verticalAlign=top;spacingLeft=4;spacingRight=4;overflow=hidden;rotatable=0;points=[[0,0.5],[1,0.5]];portConstraint=eastwest;" vertex="1" parent="wivATXwN7BjWKXYdl7Mk-16">
          <mxGeometry y="26" width="160" height="54" as="geometry"/>
        </mxCell>
        <mxCell id="wivATXwN7BjWKXYdl7Mk-18" value="" style="line;strokeWidth=1;fillColor=none;align=left;verticalAlign=middle;spacingTop=-1;spacingLeft=3;spacingRight=3;rotatable=0;labelPosition=right;points=[];portConstraint=eastwest;" vertex="1" parent="wivATXwN7BjWKXYdl7Mk-16">
          <mxGeometry y="80" width="160" height="28" as="geometry"/>
        </mxCell>
        <mxCell id="wivATXwN7BjWKXYdl7Mk-19" value="+Noeud Chemin()&#xa;+boolean exist()&#xa;+Noeud CompareVoisin" style="text;strokeColor=none;fillColor=none;align=left;verticalAlign=top;spacingLeft=4;spacingRight=4;overflow=hidden;rotatable=0;points=[[0,0.5],[1,0.5]];portConstraint=eastwest;" vertex="1" parent="wivATXwN7BjWKXYdl7Mk-16">
          <mxGeometry y="108" width="160" height="90" as="geometry"/>
        </mxCell>
        <mxCell id="wivATXwN7BjWKXYdl7Mk-20" value="Use" style="endArrow=open;endSize=12;dashed=1;html=1;exitX=1;exitY=0.75;exitDx=0;exitDy=0;" edge="1" parent="1" source="wivATXwN7BjWKXYdl7Mk-2" target="wivATXwN7BjWKXYdl7Mk-19">
          <mxGeometry width="160" relative="1" as="geometry">
            <mxPoint x="-1490" y="546" as="sourcePoint"/>
            <mxPoint x="-1330" y="546" as="targetPoint"/>
          </mxGeometry>
        </mxCell>
        <mxCell id="wivATXwN7BjWKXYdl7Mk-21" value="Noeud" style="swimlane;fontStyle=0;childLayout=stackLayout;horizontal=1;startSize=26;fillColor=none;horizontalStack=0;resizeParent=1;resizeParentMax=0;resizeLast=0;collapsible=1;marginBottom=0;" vertex="1" parent="1">
          <mxGeometry x="-430" y="-89.99999999999997" width="140" height="52" as="geometry"/>
        </mxCell>
        <mxCell id="wivATXwN7BjWKXYdl7Mk-22" value="X,Y int" style="text;strokeColor=none;fillColor=none;align=left;verticalAlign=top;spacingLeft=4;spacingRight=4;overflow=hidden;rotatable=0;points=[[0,0.5],[1,0.5]];portConstraint=eastwest;" vertex="1" parent="wivATXwN7BjWKXYdl7Mk-21">
          <mxGeometry y="26" width="140" height="26" as="geometry"/>
        </mxCell>
        <mxCell id="wivATXwN7BjWKXYdl7Mk-23" value="Use" style="endArrow=open;endSize=12;dashed=1;html=1;exitX=1;exitY=0.5;exitDx=0;exitDy=0;" edge="1" parent="1" source="wivATXwN7BjWKXYdl7Mk-17" target="wivATXwN7BjWKXYdl7Mk-22">
          <mxGeometry width="160" relative="1" as="geometry">
            <mxPoint x="-1490" y="546" as="sourcePoint"/>
            <mxPoint x="-430" y="-23.99999999999997" as="targetPoint"/>
          </mxGeometry>
        </mxCell>
        <mxCell id="wivATXwN7BjWKXYdl7Mk-24" value="Use" style="endArrow=open;endSize=12;dashed=1;html=1;exitX=0;exitY=0.75;exitDx=0;exitDy=0;entryX=0.75;entryY=1;entryDx=0;entryDy=0;" edge="1" parent="1" source="sl3L9NajWKkjFewEsj5y-1" target="wivATXwN7BjWKXYdl7Mk-1">
          <mxGeometry width="160" relative="1" as="geometry">
            <mxPoint x="-700" y="418.57" as="sourcePoint"/>
            <mxPoint x="-880" y="180" as="targetPoint"/>
          </mxGeometry>
        </mxCell>
        <mxCell id="wivATXwN7BjWKXYdl7Mk-28" value="StrategieBirdAgent" style="swimlane;html=1;fontStyle=0;childLayout=stackLayout;horizontal=1;startSize=26;fillColor=none;horizontalStack=0;resizeParent=1;resizeLast=0;collapsible=1;marginBottom=0;swimlaneFillColor=#ffffff;rounded=0;shadow=0;comic=0;labelBackgroundColor=none;strokeWidth=1;fontFamily=Verdana;fontSize=10;align=center;" vertex="1" parent="1">
          <mxGeometry x="-1530" y="302" width="190" height="83" as="geometry"/>
        </mxCell>
        <mxCell id="wivATXwN7BjWKXYdl7Mk-29" value="&lt;b style=&quot;font-size: 9px&quot;&gt;+&amp;nbsp;public abstract AgentAction doStrategie();&lt;/b&gt;" style="text;html=1;" vertex="1" parent="wivATXwN7BjWKXYdl7Mk-28">
          <mxGeometry y="26" width="190" height="54" as="geometry"/>
        </mxCell>
      </root>
    </mxGraphModel>
  </diagram>
</mxfile>
